# xmcd
#
# Track frame offsets: 
#        150
#        19114
#        36061
#        72383
#        92231
#        114938
#        133077
#        155123
#        209224
#        240654
#        263708
#        293586
#        320894
#
# Disc length: 4652 seconds
#
# Revision: 0
# Processed by: cddbd v1.5.2PL0 Copyright (c) Steve Scherf et al.
# Submitted via: ExactAudioCopy v0.99pb5
#
DISCID=c5122a0d
DTITLE=Faces  - That's All You Need (Remastered Edition) 
DYEAR=1900
DGENRE=
TTITLE0=Miss Judy's Farm
TTITLE1=Too Bad
TTITLE2=That's All You Need
TTITLE3=Stay With Me
TTITLE4=Memphis
TTITLE5=True Blue
TTITLE6=Twistin' The Night Away
TTITLE7=I Don't Wanna Discuss It
TTITLE8=Cut Across Shorty
TTITLE9=Bad and Ruin
TTITLE10=It's All Over Now
TTITLE11=Had Me A Real Good Time
TTITLE12=(I Know) I'm Losing You
EXTD=
EXTT0=
EXTT1=
EXTT2=
EXTT3=
EXTT4=
EXTT5=
EXTT6=
EXTT7=
EXTT8=
EXTT9=
EXTT10=
EXTT11=
EXTT12=
PLAYORDER=
